<svg id="SvgjsSvg1001" width="1205.15625" height="756.0044642857143" xmlns="http://www.w3.org/2000/svg" version="1.1" xmlns:xlink="http://www.w3.org/1999/xlink" xmlns:svgjs="http://svgjs.com/svgjs"><defs id="SvgjsDefs1002"><marker id="SvgjsMarker1016" markerWidth="14" markerHeight="10" refX="10" refY="5" viewBox="0 0 14 10" orient="auto" markerUnits="userSpaceOnUse" stroke-dasharray="0,0"><path id="SvgjsPath1017" d="M0,0 L14,5 L0,10 L0,0" fill="#ffcdd2" stroke="#ffcdd2" stroke-width="1"></path></marker><marker id="SvgjsMarker1038" markerWidth="14" markerHeight="10" refX="10" refY="5" viewBox="0 0 14 10" orient="auto" markerUnits="userSpaceOnUse" stroke-dasharray="0,0"><path id="SvgjsPath1039" d="M0,0 L14,5 L0,10 L0,0" fill="#323232" stroke="#323232" stroke-width="1"></path></marker><marker id="SvgjsMarker1050" markerWidth="14" markerHeight="10" refX="10" refY="5" viewBox="0 0 14 10" orient="auto" markerUnits="userSpaceOnUse" stroke-dasharray="0,0"><path id="SvgjsPath1051" d="M0,0 L14,5 L0,10 L0,0" fill="#323232" stroke="#323232" stroke-width="1"></path></marker><marker id="SvgjsMarker1074" markerWidth="14" markerHeight="10" refX="10" refY="5" viewBox="0 0 14 10" orient="auto" markerUnits="userSpaceOnUse" stroke-dasharray="0,0"><path id="SvgjsPath1075" d="M0,0 L14,5 L0,10 L0,0" fill="#323232" stroke="#323232" stroke-width="1"></path></marker><marker id="SvgjsMarker1084" markerWidth="14" markerHeight="10" refX="10" refY="5" viewBox="0 0 14 10" orient="auto" markerUnits="userSpaceOnUse" stroke-dasharray="0,0"><path id="SvgjsPath1085" d="M0,0 L14,5 L0,10 L0,0" fill="#323232" stroke="#323232" stroke-width="1"></path></marker><marker id="SvgjsMarker1094" markerWidth="14" markerHeight="10" refX="10" refY="5" viewBox="0 0 14 10" orient="auto" markerUnits="userSpaceOnUse" stroke-dasharray="0,0"><path id="SvgjsPath1095" d="M0,0 L14,5 L0,10 L0,0" fill="#ffcdd2" stroke="#ffcdd2" stroke-width="1"></path></marker><marker id="SvgjsMarker1104" markerWidth="14" markerHeight="10" refX="10" refY="5" viewBox="0 0 14 10" orient="auto" markerUnits="userSpaceOnUse" stroke-dasharray="0,0"><path id="SvgjsPath1105" d="M0,0 L14,5 L0,10 L0,0" fill="#323232" stroke="#323232" stroke-width="1"></path></marker><marker id="SvgjsMarker1114" markerWidth="14" markerHeight="10" refX="10" refY="5" viewBox="0 0 14 10" orient="auto" markerUnits="userSpaceOnUse" stroke-dasharray="0,0"><path id="SvgjsPath1115" d="M0,0 L14,5 L0,10 L0,0" fill="#323232" stroke="#323232" stroke-width="1"></path></marker><marker id="SvgjsMarker1136" markerWidth="14" markerHeight="10" refX="10" refY="5" viewBox="0 0 14 10" orient="auto" markerUnits="userSpaceOnUse" stroke-dasharray="0,0"><path id="SvgjsPath1137" d="M0,0 L14,5 L0,10 L0,0" fill="#323232" stroke="#323232" stroke-width="1"></path></marker><marker id="SvgjsMarker1146" markerWidth="14" markerHeight="10" refX="10" refY="5" viewBox="0 0 14 10" orient="auto" markerUnits="userSpaceOnUse" stroke-dasharray="0,0"><path id="SvgjsPath1147" d="M0,0 L14,5 L0,10 L0,0" fill="#323232" stroke="#323232" stroke-width="1"></path></marker><marker id="SvgjsMarker1162" markerWidth="14" markerHeight="10" refX="10" refY="5" viewBox="0 0 14 10" orient="auto" markerUnits="userSpaceOnUse" stroke-dasharray="0,0"><path id="SvgjsPath1163" d="M0,0 L14,5 L0,10 L0,0" fill="#323232" stroke="#323232" stroke-width="1"></path></marker><marker id="SvgjsMarker1178" markerWidth="14" markerHeight="10" refX="10" refY="5" viewBox="0 0 14 10" orient="auto" markerUnits="userSpaceOnUse" stroke-dasharray="0,0"><path id="SvgjsPath1179" d="M0,0 L14,5 L0,10 L0,0" fill="#323232" stroke="#323232" stroke-width="1"></path></marker><marker id="SvgjsMarker1188" markerWidth="14" markerHeight="10" refX="10" refY="5" viewBox="0 0 14 10" orient="auto" markerUnits="userSpaceOnUse" stroke-dasharray="0,0"><path id="SvgjsPath1189" d="M0,0 L14,5 L0,10 L0,0" fill="#ffb74d" stroke="#ffb74d" stroke-width="1"></path></marker></defs><g id="SvgjsG1008" transform="translate(243.0178571428571,316.0044642857143)"><path id="SvgjsPath1009" d="M 0 4Q 0 0 4 0L 92 0Q 96 0 96 4L 96 42Q 96 46 92 46L 4 46Q 0 46 0 42Z" stroke="rgba(33,41,48,1)" stroke-width="2" fill-opacity="1" fill="#ffffff"></path><g id="SvgjsG1010"><text id="SvgjsText1011" font-family="微软雅黑" text-anchor="middle" font-size="13px" width="76px" fill="#323232" font-weight="400" align="middle" lineHeight="125%" anchor="middle" family="微软雅黑" size="13px" weight="400" font-style="" opacity="1" y="12.375" transform="rotate(0)"><tspan id="SvgjsTspan1012" dy="16" x="48"><tspan id="SvgjsTspan1013" style="text-decoration:;">Ref</tspan></tspan></text></g></g><g id="SvgjsG1014"><path id="SvgjsPath1015" d="M340.0178571428571 339.0044642857143L454.5178571428571 339.0044642857143L454.5178571428571 256.0044642857143L566.4178571428571 256.0044642857143" stroke="#ffcdd2" stroke-width="2" fill="none" marker-end="url(#SvgjsMarker1016)"></path></g><g id="SvgjsG1018" transform="translate(570.0178571428571,229.00446428571428)"><path id="SvgjsPath1019" d="M 0 4Q 0 0 4 0L 92 0Q 96 0 96 4L 96 50Q 96 54 92 54L 4 54Q 0 54 0 50Z" stroke="rgba(33,41,48,1)" stroke-width="2" fill-opacity="1" fill="#ffffff"></path><g id="SvgjsG1020"><text id="SvgjsText1021" font-family="微软雅黑" text-anchor="middle" font-size="13px" width="76px" fill="#323232" font-weight="400" align="middle" lineHeight="125%" anchor="middle" family="微软雅黑" size="13px" weight="400" font-style="" opacity="1" y="16.375" transform="rotate(0)"><tspan id="SvgjsTspan1022" dy="16" x="48"><tspan id="SvgjsTspan1023" style="text-decoration:;">Dep</tspan></tspan></text></g></g><g id="SvgjsG1024" transform="translate(353.0178571428571,214.00446428571428)"><path id="SvgjsPath1025" d="M 0 0L 100 0L 100 40L 0 40Z" stroke="none" fill="none"></path><g id="SvgjsG1026"><text id="SvgjsText1027" font-family="微软雅黑" text-anchor="middle" font-size="13px" width="100px" fill="#323232" font-weight="400" align="middle" lineHeight="125%" anchor="middle" family="微软雅黑" size="13px" weight="400" font-style="" opacity="1" y="9.375" transform="rotate(0)"><tspan id="SvgjsTspan1028" dy="16" x="50"><tspan id="SvgjsTspan1029" style="text-decoration:;">has</tspan></tspan></text></g></g><g id="SvgjsG1030" transform="translate(595.0178571428571,87.00446428571429)"><path id="SvgjsPath1031" d="M 0 35.5C 0 -11.833333333333334 114 -11.833333333333334 114 35.5C 114 82.83333333333333 0 82.83333333333333 0 35.5Z" stroke="rgba(33,41,48,1)" stroke-width="2" fill-opacity="1" fill="#ffffff"></path><g id="SvgjsG1032"><text id="SvgjsText1033" font-family="微软雅黑" text-anchor="middle" font-size="13px" width="94px" fill="#323232" font-weight="400" align="middle" lineHeight="125%" anchor="middle" family="微软雅黑" size="13px" weight="400" font-style="" opacity="1" y="24.875" transform="rotate(0)"><tspan id="SvgjsTspan1034" dy="16" x="57"><tspan id="SvgjsTspan1035" style="text-decoration:;">trackRefValue</tspan></tspan></text></g></g><g id="SvgjsG1036"><path id="SvgjsPath1037" d="M710.0178571428571 122.50446428571428L882.0178571428571 122.50446428571428L882.0178571428571 111.00446428571429L1051.4178571428572 111.00446428571429" stroke="#323232" stroke-width="2" fill="none" marker-end="url(#SvgjsMarker1038)"></path></g><g id="SvgjsG1040" transform="translate(1055.017857142857,80.00446428571429)"><path id="SvgjsPath1041" d="M 0 31C 0 -10.333333333333334 105 -10.333333333333334 105 31C 105 72.33333333333333 0 72.33333333333333 0 31Z" stroke="rgba(33,41,48,1)" stroke-width="2" fill-opacity="1" fill="#ffffff"></path><g id="SvgjsG1042"><text id="SvgjsText1043" font-family="微软雅黑" text-anchor="middle" font-size="13px" width="85px" fill="#323232" font-weight="400" align="middle" lineHeight="125%" anchor="middle" family="微软雅黑" size="13px" weight="400" font-style="" opacity="1" y="11.875" transform="rotate(0)"><tspan id="SvgjsTspan1044" dy="16" x="52.5"><tspan id="SvgjsTspan1045" style="text-decoration:;">trackEffect</tspan></tspan><tspan id="SvgjsTspan1046" dy="16" x="52.5"><tspan id="SvgjsTspan1047" style="text-decoration:;"> </tspan></tspan></text></g></g><g id="SvgjsG1048"><path id="SvgjsPath1049" d="M1107.517857142857 143.00446428571428L1107.517857142857 313.0044642857143L618.0178571428571 313.0044642857143L618.0178571428571 286.6044642857143" stroke="#323232" stroke-width="2" fill="none" marker-end="url(#SvgjsMarker1050)"></path></g><g id="SvgjsG1052" transform="translate(703.0178571428571,266.0044642857143)"><path id="SvgjsPath1053" d="M 0 0L 100 0L 100 40L 0 40Z" stroke="none" fill="none"></path><g id="SvgjsG1054"><text id="SvgjsText1055" font-family="微软雅黑" text-anchor="middle" font-size="13px" width="100px" fill="#323232" font-weight="400" align="middle" lineHeight="125%" anchor="middle" family="微软雅黑" size="13px" weight="400" font-style="" opacity="1" y="9.375" transform="rotate(0)"><tspan id="SvgjsTspan1056" dy="16" x="50"><tspan id="SvgjsTspan1057" style="text-decoration:;">add activeEffect</tspan></tspan></text></g></g><g id="SvgjsG1058" transform="translate(462.0178571428571,25.004464285714285)"><path id="SvgjsPath1059" d="M 0 0L 178 0L 178 40L 0 40Z" stroke="none" fill="none"></path><g id="SvgjsG1060"><text id="SvgjsText1061" font-family="微软雅黑" text-anchor="middle" font-size="18px" width="178px" fill="#323232" font-weight="700" align="middle" lineHeight="125%" anchor="middle" family="微软雅黑" size="18px" weight="700" font-style="" opacity="1" y="4.25" transform="rotate(0)"><tspan id="SvgjsTspan1062" dy="22" x="89"><tspan id="SvgjsTspan1063" style="text-decoration:;">Vue3 collect Deps</tspan></tspan></text></g></g><g id="SvgjsG1064" transform="translate(25.01785714285714,661.0044642857143)"><path id="SvgjsPath1065" d="M 0 35C 0 -11.666666666666666 125 -11.666666666666666 125 35C 125 81.66666666666667 0 81.66666666666667 0 35Z" stroke="rgba(33,41,48,1)" stroke-width="2" fill-opacity="1" fill="#ffffff"></path><g id="SvgjsG1066"><text id="SvgjsText1067" font-family="微软雅黑" text-anchor="middle" font-size="13px" width="105px" fill="#323232" font-weight="400" align="middle" lineHeight="125%" anchor="middle" family="微软雅黑" size="13px" weight="400" font-style="" opacity="1" y="15.875" transform="rotate(0)"><tspan id="SvgjsTspan1068" dy="16" x="62.5"><tspan id="SvgjsTspan1069" style="text-decoration:;">watchEffetc(   , </tspan></tspan><tspan id="SvgjsTspan1070" dy="16" x="62.5"><tspan id="SvgjsTspan1071" style="text-decoration:;">options)</tspan></tspan></text></g></g><g id="SvgjsG1072"><path id="SvgjsPath1073" d="M151.01785714285714 696.0044642857143L208.01785714285714 696.0044642857143L208.01785714285714 696.0044642857143L262.4178571428571 696.0044642857143" stroke="#323232" stroke-width="2" fill="none" marker-end="url(#SvgjsMarker1074)"></path></g><g id="SvgjsG1076" transform="translate(266.0178571428571,661.0044642857143)"><path id="SvgjsPath1077" d="M 0 35C 0 -11.666666666666666 80 -11.666666666666666 80 35C 80 81.66666666666667 0 81.66666666666667 0 35Z" stroke="rgba(33,41,48,1)" stroke-width="2" fill-opacity="1" fill="#ffffff"></path><g id="SvgjsG1078"><text id="SvgjsText1079" font-family="微软雅黑" text-anchor="middle" font-size="13px" width="60px" fill="#323232" font-weight="400" align="middle" lineHeight="125%" anchor="middle" family="微软雅黑" size="13px" weight="400" font-style="" opacity="1" y="24.375" transform="rotate(0)"><tspan id="SvgjsTspan1080" dy="16" x="40"><tspan id="SvgjsTspan1081" style="text-decoration:;">doWatch</tspan></tspan></text></g></g><g id="SvgjsG1082"><path id="SvgjsPath1083" d="M347.0178571428571 696.0044642857143L409.0178571428571 696.0044642857143L409.0178571428571 696.0044642857143L468.4178571428571 696.0044642857143" stroke="#323232" stroke-width="2" fill="none" marker-end="url(#SvgjsMarker1084)"></path></g><g id="SvgjsG1086" transform="translate(472.0178571428571,669.0044642857143)"><path id="SvgjsPath1087" d="M 0 4Q 0 0 4 0L 119 0Q 123 0 123 4L 123 50Q 123 54 119 54L 4 54Q 0 54 0 50Z" stroke="rgba(33,41,48,1)" stroke-width="2" fill-opacity="1" fill="#ffffff"></path><g id="SvgjsG1088"><text id="SvgjsText1089" font-family="微软雅黑" text-anchor="middle" font-size="13px" width="103px" fill="#323232" font-weight="400" align="middle" lineHeight="125%" anchor="middle" family="微软雅黑" size="13px" weight="400" font-style="" opacity="1" y="16.375" transform="rotate(0)"><tspan id="SvgjsTspan1090" dy="16" x="61.5"><tspan id="SvgjsTspan1091" style="text-decoration:;">ReactiveEffect</tspan></tspan></text></g></g><g id="SvgjsG1092"><path id="SvgjsPath1093" d="M291.0178571428571 315.0044642857143L291.0178571428571 265.0044642857143L291.0178571428571 265.0044642857143L291.0178571428571 217.60446428571427" stroke="#ffcdd2" stroke-width="2" fill="none" marker-end="url(#SvgjsMarker1094)"></path></g><g id="SvgjsG1096" transform="translate(243.0178571428571,160.00446428571428)"><path id="SvgjsPath1097" d="M 0 0L 96 0L 96 54L 0 54Z" stroke="rgba(33,41,48,1)" stroke-width="2" fill-opacity="1" fill="#ffffff"></path><g id="SvgjsG1098"><text id="SvgjsText1099" font-family="微软雅黑" text-anchor="middle" font-size="13px" width="76px" fill="#323232" font-weight="400" align="middle" lineHeight="125%" anchor="middle" family="微软雅黑" size="13px" weight="400" font-style="" opacity="1" y="16.375" transform="rotate(0)"><tspan id="SvgjsTspan1100" dy="16" x="48"><tspan id="SvgjsTspan1101" style="text-decoration:;">value</tspan></tspan></text></g></g><g id="SvgjsG1102"><path id="SvgjsPath1103" d="M291.0178571428571 159.00446428571428L291.0178571428571 122.50446428571428L591.4178571428571 122.50446428571428" stroke="#323232" stroke-width="2" fill="none" marker-end="url(#SvgjsMarker1104)"></path></g><g id="SvgjsG1106" transform="translate(253.0178571428571,80.00446428571429)"><path id="SvgjsPath1107" d="M 0 0L 100 0L 100 40L 0 40Z" stroke="none" fill="none"></path><g id="SvgjsG1108"><text id="SvgjsText1109" font-family="微软雅黑" text-anchor="middle" font-size="13px" width="100px" fill="#323232" font-weight="400" align="middle" lineHeight="125%" anchor="middle" family="微软雅黑" size="13px" weight="400" font-style="" opacity="1" y="9.375" transform="rotate(0)"><tspan id="SvgjsTspan1110" dy="16" x="50"><tspan id="SvgjsTspan1111" style="text-decoration:;">get value</tspan></tspan></text></g></g><g id="SvgjsG1112"><path id="SvgjsPath1113" d="M596.0178571428571 696.0044642857143L689.0178571428571 696.0044642857143L689.0178571428571 696.0044642857143L779.4178571428571 696.0044642857143" stroke-dasharray="8,5" stroke="#323232" stroke-width="2" fill="none" marker-end="url(#SvgjsMarker1114)"></path></g><g id="SvgjsG1116" transform="translate(263.0178571428571,218.00446428571428)"><path id="SvgjsPath1117" d="M 0 0L 100 0L 100 40L 0 40Z" stroke="none" fill="none"></path><g id="SvgjsG1118"><text id="SvgjsText1119" font-family="微软雅黑" text-anchor="middle" font-size="13px" width="100px" fill="#323232" font-weight="400" align="middle" lineHeight="125%" anchor="middle" family="微软雅黑" size="13px" weight="400" font-style="" opacity="1" y="9.375" transform="rotate(0)"><tspan id="SvgjsTspan1120" dy="16" x="50"><tspan id="SvgjsTspan1121" style="text-decoration:;">has</tspan></tspan></text></g></g><g id="SvgjsG1122" transform="translate(783.0178571428571,661.0044642857143)"><path id="SvgjsPath1123" d="M 0 35C 0 -11.666666666666666 70 -11.666666666666666 70 35C 70 81.66666666666667 0 81.66666666666667 0 35Z" stroke="rgba(33,41,48,1)" stroke-width="2" fill-opacity="1" fill="#ffffff"></path><g id="SvgjsG1124"><text id="SvgjsText1125" font-family="微软雅黑" text-anchor="middle" font-size="13px" width="50px" fill="#323232" font-weight="400" align="middle" lineHeight="125%" anchor="middle" family="微软雅黑" size="13px" weight="400" font-style="" opacity="1" y="24.375" transform="rotate(0)"><tspan id="SvgjsTspan1126" dy="16" x="35"><tspan id="SvgjsTspan1127" style="text-decoration:;">run</tspan></tspan></text></g></g><g id="SvgjsG1128" transform="translate(807.0178571428571,629.0044642857143)"><path id="SvgjsPath1129" d="M 0 0L 170 0L 170 40L 0 40Z" stroke="none" fill="none"></path><g id="SvgjsG1130"><text id="SvgjsText1131" font-family="微软雅黑" text-anchor="middle" font-size="13px" width="170px" fill="#323232" font-weight="400" align="middle" lineHeight="125%" anchor="middle" family="微软雅黑" size="13px" weight="400" font-style="" opacity="1" y="9.375" transform="rotate(0)"><tspan id="SvgjsTspan1132" dy="16" x="85"><tspan id="SvgjsTspan1133" style="text-decoration:;">activeEffect = this</tspan></tspan></text></g></g><g id="SvgjsG1134"><path id="SvgjsPath1135" d="M854.0178571428571 696.0044642857143L893.0178571428571 696.0044642857143L893.0178571428571 696.0044642857143L929.4178571428572 696.0044642857143" stroke="#323232" stroke-width="2" fill="none" marker-end="url(#SvgjsMarker1136)"></path></g><g id="SvgjsG1138" transform="translate(933.0178571428571,661.0044642857143)"><path id="SvgjsPath1139" d="M 0 35C 0 -11.666666666666666 70 -11.666666666666666 70 35C 70 81.66666666666667 0 81.66666666666667 0 35Z" stroke="rgba(33,41,48,1)" stroke-width="2" fill-opacity="1" fill="#ffffff"></path><g id="SvgjsG1140"><text id="SvgjsText1141" font-family="微软雅黑" text-anchor="middle" font-size="13px" width="50px" fill="#f44336" font-weight="400" align="middle" lineHeight="125%" anchor="middle" family="微软雅黑" size="13px" weight="400" font-style="" opacity="1" y="24.375" transform="rotate(0)"><tspan id="SvgjsTspan1142" dy="16" x="35"><tspan id="SvgjsTspan1143" style="text-decoration:;">fn</tspan></tspan></text></g></g><g id="SvgjsG1144"><path id="SvgjsPath1145" d="M242.0178571428571 187.00446428571428L203.01785714285714 187.00446428571428L203.01785714285714 187.00446428571428L166.61785714285716 187.00446428571428" stroke="#323232" stroke-width="2" fill="none" marker-end="url(#SvgjsMarker1146)"></path></g><g id="SvgjsG1148" transform="translate(45.01785714285714,152.00446428571428)"><path id="SvgjsPath1149" d="M 0 35C 0 -11.666666666666666 118 -11.666666666666666 118 35C 118 81.66666666666667 0 81.66666666666667 0 35Z" stroke="rgba(33,41,48,1)" stroke-width="2" fill-opacity="1" fill="#ffffff"></path><g id="SvgjsG1150"><text id="SvgjsText1151" font-family="微软雅黑" text-anchor="middle" font-size="13px" width="98px" fill="#323232" font-weight="400" align="middle" lineHeight="125%" anchor="middle" family="微软雅黑" size="13px" weight="400" font-style="" opacity="1" y="24.375" transform="rotate(0)"><tspan id="SvgjsTspan1152" dy="16" x="59"><tspan id="SvgjsTspan1153" style="text-decoration:;">triggerRefValue</tspan></tspan></text></g></g><g id="SvgjsG1154" transform="translate(73.01785714285714,669.0044642857143)"><path id="SvgjsPath1155" d="M 0 0L 100 0L 100 40L 0 40Z" stroke="none" fill="none"></path><g id="SvgjsG1156"><text id="SvgjsText1157" font-family="微软雅黑" text-anchor="middle" font-size="13px" width="100px" fill="#f44336" font-weight="400" align="middle" lineHeight="125%" anchor="middle" family="微软雅黑" size="13px" weight="400" font-style="" opacity="1" y="9.375" transform="rotate(0)"><tspan id="SvgjsTspan1158" dy="16" x="50"><tspan id="SvgjsTspan1159" style="text-decoration:;">fn</tspan></tspan></text></g></g><g id="SvgjsG1160"><path id="SvgjsPath1161" d="M104.01785714285714 223.00446428571428L104.01785714285714 262.0044642857143L104.01785714285714 262.0044642857143L104.01785714285714 298.40446428571425" stroke="#323232" stroke-width="2" fill="none" marker-end="url(#SvgjsMarker1162)"></path></g><g id="SvgjsG1164" transform="translate(51.51785714285714,304.0044642857143)"><path id="SvgjsPath1165" d="M 0 35C 0 -11.666666666666666 105 -11.666666666666666 105 35C 105 81.66666666666667 0 81.66666666666667 0 35Z" stroke="rgba(33,41,48,1)" stroke-width="2" fill-opacity="1" fill="#ffffff"></path><g id="SvgjsG1166"><text id="SvgjsText1167" font-family="微软雅黑" text-anchor="middle" font-size="13px" width="85px" fill="#323232" font-weight="400" align="middle" lineHeight="125%" anchor="middle" family="微软雅黑" size="13px" weight="400" font-style="" opacity="1" y="24.375" transform="rotate(0)"><tspan id="SvgjsTspan1168" dy="16" x="52.5"><tspan id="SvgjsTspan1169" style="text-decoration:;">triggerEffect</tspan></tspan></text></g></g><g id="SvgjsG1170" transform="translate(89.01785714285714,243.00446428571428)"><path id="SvgjsPath1171" d="M 0 0L 100 0L 100 40L 0 40Z" stroke="none" fill="none"></path><g id="SvgjsG1172"><text id="SvgjsText1173" font-family="微软雅黑" text-anchor="middle" font-size="13px" width="100px" fill="#323232" font-weight="400" align="middle" lineHeight="125%" anchor="middle" family="微软雅黑" size="13px" weight="400" font-style="" opacity="1" y="9.375" transform="rotate(0)"><tspan id="SvgjsTspan1174" dy="16" x="50"><tspan id="SvgjsTspan1175" style="text-decoration:;">set value</tspan></tspan></text></g></g><g id="SvgjsG1176"><path id="SvgjsPath1177" d="M104.01785714285714 375.0044642857143L104.01785714285714 423.5044642857143L205.64642857142857 423.5044642857143L205.64642857142857 469.40446428571425" stroke="#323232" stroke-width="2" fill="none" marker-end="url(#SvgjsMarker1178)"></path></g><g id="SvgjsG1180" transform="translate(156.51785714285714,471.0044642857143)"><path id="SvgjsPath1181" d="M 0 35C 0 -11.666666666666666 90.5 -11.666666666666666 90.5 35C 90.5 81.66666666666667 0 81.66666666666667 0 35Z" stroke="rgba(33,41,48,1)" stroke-width="2" fill-opacity="1" fill="#ffffff"></path><g id="SvgjsG1182"><text id="SvgjsText1183" font-family="微软雅黑" text-anchor="middle" font-size="13px" width="71px" fill="#323232" font-weight="400" align="middle" lineHeight="125%" anchor="middle" family="微软雅黑" size="13px" weight="400" font-style="" opacity="1" y="24.375" transform="rotate(0)"><tspan id="SvgjsTspan1184" dy="16" x="45.5"><tspan id="SvgjsTspan1185" style="text-decoration:;">effect.run</tspan></tspan></text></g></g><g id="SvgjsG1186"><path id="SvgjsPath1187" d="M1004.0178571428571 696.0044642857143L1033.017857142857 696.0044642857143L1033.017857142857 185.00446428571428L509.0178571428571 185.00446428571428L509.0178571428571 126.00446428571428" stroke-dasharray="8,5" stroke="#ffb74d" stroke-width="2" fill="none" marker-end="url(#SvgjsMarker1188)"></path></g><g id="SvgjsG1190" transform="translate(1003.0178571428571,438.0044642857143)"><path id="SvgjsPath1191" d="M 0 0L 177 0L 177 40L 0 40Z" stroke="none" fill="none"></path><g id="SvgjsG1192"><text id="SvgjsText1193" font-family="微软雅黑" text-anchor="middle" font-size="13px" width="177px" fill="#323232" font-weight="400" align="middle" lineHeight="125%" anchor="middle" family="微软雅黑" size="13px" weight="400" font-style="" opacity="1" y="9.375" transform="rotate(0)"><tspan id="SvgjsTspan1194" dy="16" x="88.5"><tspan id="SvgjsTspan1195" style="text-decoration:;">when get value</tspan></tspan></text></g></g></svg>